<svg xmlns="http://www.w3.org/2000/svg" xmlns:xlink="http://www.w3.org/1999/xlink" version="1.1" data-diagram-type="ACTIVITY" style="width:3641px;height:5335px;background:#FFFFFF;" width="3641.458px" height="5335px" viewBox="0 0 3641 5335" zoomAndPan="magnify" preserveAspectRatio="none" contentStyleType="text/css"><?plantuml 1.2026.8?><defs/><g font-family="sans-serif" lengthAdjust="spacing"><g class="title" data-source-line="20"><text x="1390.27" y="74.878" fill="#000" font-size="32.083" textLength="857.54" font-weight="700" font-family="Arial">Figure 9. UML activity diagram of the lifecycle of a study</text></g><rect x="45.833" y="123.647" width="3534.954" height="46.084" fill="none" style="stroke:none;"/><ellipse cx="387.39" cy="204.106" rx="22.917" ry="22.917" fill="#222" style="stroke:#222;stroke-width:2.292;"/><rect x="246.027" y="272.856" width="282.725" height="76.556" fill="#F7F9FC" style="stroke:#3B4A6B;stroke-width:1.146;" rx="28.646" ry="28.646"/><text x="268.944" y="320.668" fill="#000" font-size="27.5" textLength="236.892" font-family="Arial">Create study (draft)</text><rect x="121.458" y="395.245" width="531.864" height="138.001" fill="#F7F9FC" style="stroke:#3B4A6B;stroke-width:1.146;" rx="28.646" ry="28.646"/><text x="144.375" y="443.057" fill="#000" font-size="27.5" textLength="398.911" font-family="Arial">Define activities with entry types,</text><text x="144.375" y="473.78" fill="#000" font-size="27.5" textLength="486.03" font-family="Arial">window, prompts per day, minimum gap</text><text x="144.375" y="504.502" fill="#000" font-size="27.5" textLength="227.788" font-family="Arial">and schedule style</text><rect x="164.226" y="579.08" width="446.329" height="107.279" fill="#F7F9FC" style="stroke:#3B4A6B;stroke-width:1.146;" rx="28.646" ry="28.646"/><text x="187.142" y="626.892" fill="#000" font-size="27.5" textLength="213.998" font-family="Arial">Invite participants</text><text x="187.142" y="657.614" fill="#000" font-size="27.5" textLength="400.496" font-family="Arial">(alias and single-use invite code)</text><rect x="239.904" y="732.192" width="294.972" height="76.556" fill="#F7F9FC" style="stroke:#3B4A6B;stroke-width:1.146;" rx="28.646" ry="28.646"/><text x="262.821" y="780.004" fill="#000" font-size="27.5" textLength="249.138" font-family="Arial">Start study (running)</text><rect x="138.968" y="1659.529" width="496.844" height="76.556" fill="#F7F9FC" style="stroke:#3B4A6B;stroke-width:1.146;" rx="28.646" ry="28.646"/><text x="161.885" y="1707.341" fill="#000" font-size="27.5" textLength="451.011" font-family="Arial">See unplanned prompts and reasons</text><rect x="180.265" y="3793.523" width="414.25" height="107.279" fill="#F7F9FC" style="stroke:#3B4A6B;stroke-width:1.146;" rx="28.646" ry="28.646"/><text x="203.182" y="3841.335" fill="#000" font-size="27.5" textLength="368.417" font-family="Arial">Follow adherence and entries,</text><text x="203.182" y="3872.057" fill="#000" font-size="27.5" textLength="181.932" font-family="Arial">and tag entries</text><path d="M567.711,4056.966 L567.711,4092.541 L521.878,4101.707 L567.711,4110.874 L567.711,4146.449 A0,0 0 0 0 567.711,4146.449 L1016.656,4146.449 A0,0 0 0 0 1016.656,4146.449 L1016.656,4079.883 L993.74,4056.966 L567.711,4056.966 A0,0 0 0 0 567.711,4056.966" style="stroke:#B8A24A;stroke-width:1.146;" fill="#FFFBE6"/><path d="M993.74,4056.966 L993.74,4079.883 L1016.656,4079.883 L993.74,4056.966" style="stroke:#B8A24A;stroke-width:1.146;" fill="#FFFBE6"/><text x="581.461" y="4095.394" fill="#000" font-size="29.792" textLength="362.693" font-family="Arial">Identity, location and media</text><text x="581.461" y="4128.677" fill="#000" font-size="29.792" textLength="400.82" font-family="Arial">are optional and off by default.</text><rect x="252.902" y="4063.429" width="268.975" height="76.556" fill="#F7F9FC" style="stroke:#3B4A6B;stroke-width:1.146;" rx="28.646" ry="28.646"/><text x="275.819" y="4111.241" fill="#000" font-size="27.5" textLength="223.142" font-family="Arial">Export data (CSV)</text><polygon points="289.296,3946.635,485.485,3946.635,512.985,3974.135,485.485,4001.635,289.296,4001.635,261.796,3974.135,289.296,3946.635" fill="#FFFBE6" style="stroke:#B8A24A;stroke-width:1.146;stroke-linejoin:miter;stroke-miterlimit:10;"/><text x="396.557" y="4024.455" fill="#000" font-size="25.208" textLength="39.228" font-family="Arial">yes</text><text x="289.296" y="3982.874" fill="#000" font-size="25.208" textLength="196.189" font-family="Arial">Export data now?</text><text x="512.985" y="3968.793" fill="#000" font-size="25.208" textLength="28.039" font-family="Arial">no</text><polygon points="387.39,4192.282,414.89,4219.782,387.39,4247.282,359.89,4219.782,387.39,4192.282" fill="#FFFBE6" style="stroke:#B8A24A;stroke-width:1.146;stroke-linejoin:miter;stroke-miterlimit:10;"/><polygon points="280.895,4293.115,493.885,4293.115,521.385,4320.615,493.885,4348.115,280.895,4348.115,253.395,4320.615,280.895,4293.115" fill="#FFFBE6" style="stroke:#B8A24A;stroke-width:1.146;stroke-linejoin:miter;stroke-miterlimit:10;"/><text x="396.557" y="4370.936" fill="#000" font-size="25.208" textLength="28.039" font-family="Arial">no</text><text x="280.895" y="4329.354" fill="#000" font-size="25.208" textLength="212.991" font-family="Arial">Study still running?</text><text x="521.385" y="4315.273" fill="#000" font-size="25.208" textLength="39.228" font-family="Arial">yes</text><rect x="225.402" y="4420.207" width="323.975" height="107.279" fill="#F7F9FC" style="stroke:#3B4A6B;stroke-width:1.146;" rx="28.646" ry="28.646"/><text x="248.319" y="4468.018" fill="#000" font-size="27.5" textLength="189.546" font-family="Arial">Close the study</text><text x="248.319" y="4498.741" fill="#000" font-size="27.5" textLength="278.142" font-family="Arial">(export is still possible)</text><polygon points="189.816,4683.65,584.964,4683.65,612.464,4711.15,584.964,4738.65,189.816,4738.65,162.316,4711.15,189.816,4683.65" fill="#FFFBE6" style="stroke:#B8A24A;stroke-width:1.146;stroke-linejoin:miter;stroke-miterlimit:10;"/><text x="189.816" y="4719.889" fill="#000" font-size="25.208" textLength="395.148" font-family="Arial">Research team grants the request?</text><text x="123.088" y="4705.808" fill="#000" font-size="25.208" textLength="39.228" font-family="Arial">yes</text><text x="612.464" y="4705.808" fill="#000" font-size="25.208" textLength="28.039" font-family="Arial">no</text><rect x="393.854" y="4784.483" width="510.608" height="76.556" fill="#F7F9FC" style="stroke:#3B4A6B;stroke-width:1.146;" rx="28.646" ry="28.646"/><text x="416.771" y="4832.295" fill="#000" font-size="27.5" textLength="464.774" font-family="Arial">Keep the data and record the decision</text><polygon points="387.39,5034.991,414.89,5062.491,387.39,5089.991,359.89,5062.491,387.39,5034.991" fill="#FFFBE6" style="stroke:#B8A24A;stroke-width:1.146;stroke-linejoin:miter;stroke-miterlimit:10;"/><polygon points="219.246,4573.318,555.534,4573.318,583.034,4600.818,555.534,4628.318,219.246,4628.318,191.746,4600.818,219.246,4573.318" fill="#FFFBE6" style="stroke:#B8A24A;stroke-width:1.146;stroke-linejoin:miter;stroke-miterlimit:10;"/><text x="396.557" y="4651.139" fill="#000" font-size="25.208" textLength="39.228" font-family="Arial">yes</text><text x="219.246" y="4609.558" fill="#000" font-size="25.208" textLength="336.288" font-family="Arial">Participant asked for erasure?</text><text x="163.707" y="4595.476" fill="#000" font-size="25.208" textLength="28.039" font-family="Arial">no</text><polygon points="387.39,5135.824,414.89,5163.324,387.39,5190.824,359.89,5163.324,387.39,5135.824" fill="#FFFBE6" style="stroke:#B8A24A;stroke-width:1.146;stroke-linejoin:miter;stroke-miterlimit:10;"/><ellipse cx="387.39" cy="5261.866" rx="25.208" ry="25.208" fill="none" style="stroke:#222;stroke-width:2.292;"/><ellipse cx="387.39" cy="5261.866" rx="13.75" ry="13.75" fill="#222" style="stroke:#222;stroke-width:2.292;"/><line x1="45.833" y1="123.647" x2="45.833" y2="5287.074" style="stroke:#8A94AA;stroke-width:3.438;"/><rect x="1273.706" y="854.581" width="457.044" height="76.556" fill="#F7F9FC" style="stroke:#3B4A6B;stroke-width:1.146;" rx="28.646" ry="28.646"/><text x="1296.622" y="902.393" fill="#000" font-size="27.5" textLength="411.211" font-family="Arial">Join the study with the invite code</text><rect x="1300.434" y="976.971" width="403.588" height="107.279" fill="#F7F9FC" style="stroke:#3B4A6B;stroke-width:1.146;" rx="28.646" ry="28.646"/><text x="1323.35" y="1024.782" fill="#000" font-size="27.5" textLength="357.755" font-family="Arial">Read and accept the consent</text><text x="1323.35" y="1055.505" fill="#000" font-size="27.5" textLength="191.036" font-family="Arial">(version stored)</text><rect x="1364.679" y="1130.083" width="275.098" height="76.556" fill="#F7F9FC" style="stroke:#3B4A6B;stroke-width:1.146;" rx="28.646" ry="28.646"/><text x="1387.595" y="1177.894" fill="#000" font-size="27.5" textLength="229.265" font-family="Arial">Declare availability</text><polygon points="1411.838,1904.308,1592.617,1904.308,1620.117,1931.808,1592.617,1959.308,1411.838,1959.308,1384.338,1931.808,1411.838,1904.308" fill="#FFFBE6" style="stroke:#B8A24A;stroke-width:1.146;stroke-linejoin:miter;stroke-miterlimit:10;"/><text x="1411.838" y="1940.547" fill="#000" font-size="25.208" textLength="180.779" font-family="Arial">Push delivered?</text><text x="1345.11" y="1926.466" fill="#000" font-size="25.208" textLength="39.228" font-family="Arial">yes</text><text x="1620.117" y="1926.466" fill="#000" font-size="25.208" textLength="28.039" font-family="Arial">no</text><rect x="1199.99" y="1982.225" width="269.002" height="76.556" fill="#F7F9FC" style="stroke:#3B4A6B;stroke-width:1.146;" rx="28.646" ry="28.646"/><text x="1222.906" y="2030.036" fill="#000" font-size="27.5" textLength="223.169" font-family="Arial">Notification shown</text><rect x="1514.825" y="1982.225" width="310.279" height="107.279" fill="#F7F9FC" style="stroke:#3B4A6B;stroke-width:1.146;" rx="28.646" ry="28.646"/><text x="1537.742" y="2030.036" fill="#000" font-size="27.5" textLength="264.446" font-family="Arial">Local notification fires</text><text x="1537.742" y="2060.759" fill="#000" font-size="27.5" textLength="255.275" font-family="Arial">from the synced plan</text><polygon points="1502.228,2103.253,1529.728,2130.753,1502.228,2158.253,1474.728,2130.753,1502.228,2103.253" fill="#FFFBE6" style="stroke:#B8A24A;stroke-width:1.146;stroke-linejoin:miter;stroke-miterlimit:10;"/><rect x="1216.383" y="2204.087" width="571.69" height="107.279" fill="#F7F9FC" style="stroke:#3B4A6B;stroke-width:1.146;" rx="28.646" ry="28.646"/><text x="1239.299" y="2251.898" fill="#000" font-size="27.5" textLength="414.246" font-family="Arial">Open the prompt, record the entry</text><text x="1239.299" y="2282.621" fill="#000" font-size="27.5" textLength="525.857" font-family="Arial">(UUID and SHA-256 created on the phone)</text><rect x="1292.786" y="2484.29" width="418.883" height="76.556" fill="#F7F9FC" style="stroke:#3B4A6B;stroke-width:1.146;" rx="28.646" ry="28.646"/><text x="1315.703" y="2532.101" fill="#000" font-size="27.5" textLength="373.049" font-family="Arial">Keep entry in the offline queue</text><polygon points="1378.199,2357.198,1626.257,2357.198,1653.757,2384.698,1626.257,2412.198,1378.199,2412.198,1350.699,2384.698,1378.199,2357.198" fill="#FFFBE6" style="stroke:#B8A24A;stroke-width:1.146;stroke-linejoin:miter;stroke-miterlimit:10;"/><text x="1511.394" y="2435.019" fill="#000" font-size="25.208" textLength="28.039" font-family="Arial">no</text><text x="1378.199" y="2393.438" fill="#000" font-size="25.208" textLength="248.058" font-family="Arial">Connection available?</text><text x="1311.471" y="2379.356" fill="#000" font-size="25.208" textLength="39.228" font-family="Arial">yes</text><rect x="1225.567" y="2757.929" width="553.321" height="76.556" fill="#F7F9FC" style="stroke:#3B4A6B;stroke-width:1.146;" rx="28.646" ry="28.646"/><text x="1248.484" y="2805.741" fill="#000" font-size="27.5" textLength="507.488" font-family="Arial">Send the entry (media straight to storage)</text><polygon points="1502.228,2657.096,1529.728,2684.596,1502.228,2712.096,1474.728,2684.596,1502.228,2657.096" fill="#FFFBE6" style="stroke:#B8A24A;stroke-width:1.146;stroke-linejoin:miter;stroke-miterlimit:10;"/><polygon points="1372.623,3544.042,1631.833,3544.042,1659.333,3571.542,1631.833,3599.042,1372.623,3599.042,1345.123,3571.542,1372.623,3544.042" fill="#FFFBE6" style="stroke:#B8A24A;stroke-width:1.146;stroke-linejoin:miter;stroke-miterlimit:10;"/><text x="1511.394" y="3621.863" fill="#000" font-size="25.208" textLength="39.228" font-family="Arial">yes</text><text x="1372.623" y="3580.282" fill="#000" font-size="25.208" textLength="259.21" font-family="Arial">Confirmation received?</text><text x="1659.333" y="3566.2" fill="#000" font-size="25.208" textLength="119.124" font-family="Arial">no, resend</text><rect x="1297.412" y="3671.134" width="409.631" height="76.556" fill="#F7F9FC" style="stroke:#3B4A6B;stroke-width:1.146;" rx="28.646" ry="28.646"/><text x="1320.329" y="3718.945" fill="#000" font-size="27.5" textLength="363.798" font-family="Arial">Remove entry from the queue</text><polygon points="1502.228,1252.472,1529.728,1279.972,1502.228,1307.472,1474.728,1279.972,1502.228,1252.472" fill="#FFFBE6" style="stroke:#B8A24A;stroke-width:1.146;stroke-linejoin:miter;stroke-miterlimit:10;"/><line x1="1083.115" y1="123.647" x2="1083.115" y2="5287.074" style="stroke:#8A94AA;stroke-width:3.438;"/><rect x="2714.617" y="1353.305" width="516.596" height="107.279" fill="#F7F9FC" style="stroke:#3B4A6B;stroke-width:1.146;" rx="28.646" ry="28.646"/><text x="2737.533" y="1401.117" fill="#000" font-size="27.5" textLength="383.724" font-family="Arial">Nightly planning of the next day</text><text x="2737.533" y="1431.84" fill="#000" font-size="27.5" textLength="470.763" font-family="Arial">(constraint satisfaction, 10 s per study)</text><rect x="2708.447" y="1506.417" width="528.936" height="107.279" fill="#F7F9FC" style="stroke:#3B4A6B;stroke-width:1.146;" rx="28.646" ry="28.646"/><text x="2731.363" y="1554.229" fill="#000" font-size="27.5" textLength="483.103" font-family="Arial">Store prompts as planned or unplanned</text><text x="2731.363" y="1584.952" fill="#000" font-size="27.5" textLength="158.944" font-family="Arial">(with reason)</text><rect x="2814.694" y="1781.919" width="316.442" height="76.556" fill="#F7F9FC" style="stroke:#3B4A6B;stroke-width:1.146;" rx="28.646" ry="28.646"/><text x="2837.61" y="1829.73" fill="#000" font-size="27.5" textLength="270.609" font-family="Arial">Send push notification</text><rect x="2700.115" y="2880.318" width="545.6" height="107.279" fill="#F7F9FC" style="stroke:#3B4A6B;stroke-width:1.146;" rx="28.646" ry="28.646"/><text x="2723.032" y="2928.13" fill="#000" font-size="27.5" textLength="499.767" font-family="Arial">API inserts the entry with the same UUID</text><text x="2723.032" y="2958.853" fill="#000" font-size="27.5" textLength="369.934" font-family="Arial">(a duplicate resend is ignored)</text><polygon points="2771.125,3033.43,3174.705,3033.43,3202.205,3060.93,3174.705,3088.43,2771.125,3088.43,2743.625,3060.93,2771.125,3033.43" fill="#FFFBE6" style="stroke:#B8A24A;stroke-width:1.146;stroke-linejoin:miter;stroke-miterlimit:10;"/><text x="2771.125" y="3069.67" fill="#000" font-size="25.208" textLength="403.58" font-family="Arial">Committed on two database nodes?</text><text x="2704.397" y="3055.588" fill="#000" font-size="25.208" textLength="39.228" font-family="Arial">yes</text><text x="3202.205" y="3055.588" fill="#000" font-size="25.208" textLength="28.039" font-family="Arial">no</text><rect x="2359.295" y="3111.347" width="316.348" height="76.556" fill="#F7F9FC" style="stroke:#3B4A6B;stroke-width:1.146;" rx="28.646" ry="28.646"/><text x="2382.212" y="3159.159" fill="#000" font-size="27.5" textLength="270.515" font-family="Arial">API confirms the entry</text><rect x="1848.021" y="3233.736" width="1384.731" height="13.75" fill="#555" style="stroke:#555;stroke-width:2.292;" rx="5.729" ry="5.729"/><rect x="1875.521" y="3293.32" width="409.658" height="76.556" fill="#F7F9FC" style="stroke:#3B4A6B;stroke-width:1.146;" rx="28.646" ry="28.646"/><text x="1898.438" y="3341.131" fill="#000" font-size="27.5" textLength="363.824" font-family="Arial">Publish event from the outbox</text><rect x="2308.095" y="3293.32" width="400.406" height="76.556" fill="#F7F9FC" style="stroke:#3B4A6B;stroke-width:1.146;" rx="28.646" ry="28.646"/><text x="2331.012" y="3341.131" fill="#000" font-size="27.5" textLength="354.573" font-family="Arial">Media worker processes files</text><rect x="2772.668" y="3293.32" width="428" height="76.556" fill="#F7F9FC" style="stroke:#3B4A6B;stroke-width:1.146;" rx="28.646" ry="28.646"/><text x="2795.585" y="3341.131" fill="#000" font-size="27.5" textLength="382.167" font-family="Arial">Update dashboards in real time</text><rect x="1848.021" y="3415.709" width="1384.731" height="13.75" fill="#555" style="stroke:#555;stroke-width:2.292;" rx="5.729" ry="5.729"/><rect x="3268.632" y="3111.347" width="299.55" height="76.556" fill="#F7F9FC" style="stroke:#3B4A6B;stroke-width:1.146;" rx="28.646" ry="28.646"/><text x="3291.548" y="3159.159" fill="#000" font-size="27.5" textLength="253.717" font-family="Arial">Answer with a failure</text><polygon points="2972.915,3443.209,3000.415,3470.709,2972.915,3498.209,2945.415,3470.709,2972.915,3443.209" fill="#FFFBE6" style="stroke:#B8A24A;stroke-width:1.146;stroke-linejoin:miter;stroke-miterlimit:10;"/><rect x="2500.98" y="4784.483" width="420.333" height="76.556" fill="#F7F9FC" style="stroke:#3B4A6B;stroke-width:1.146;" rx="28.646" ry="28.646"/><text x="2523.897" y="4832.295" fill="#000" font-size="27.5" textLength="374.5" font-family="Arial">Erase identity, entries and files</text><rect x="2488.748" y="4935.518" width="444.798" height="76.556" fill="#F7F9FC" style="stroke:#3B4A6B;stroke-width:1.146;" rx="28.646" ry="28.646"/><text x="2511.664" y="4983.33" fill="#000" font-size="27.5" textLength="398.965" font-family="Arial">Write the erasure to the audit log</text><line x1="1834.271" y1="123.647" x2="1834.271" y2="5287.074" style="stroke:#8A94AA;stroke-width:3.438;"/><line x1="3577.349" y1="123.647" x2="3577.349" y2="5287.074" style="stroke:#8A94AA;stroke-width:3.438;"/><line x1="387.39" y1="227.023" x2="387.39" y2="272.856" style="stroke:#3B4A6B;stroke-width:2.292;"/><polygon points="378.223,249.939,387.39,272.856,396.557,249.939,387.39,259.106" fill="#3B4A6B" style="stroke:#3B4A6B;stroke-width:2.292;stroke-linejoin:miter;stroke-miterlimit:10;"/><line x1="387.39" y1="349.412" x2="387.39" y2="395.245" style="stroke:#3B4A6B;stroke-width:2.292;"/><polygon points="378.223,372.329,387.39,395.245,396.557,372.329,387.39,381.495" fill="#3B4A6B" style="stroke:#3B4A6B;stroke-width:2.292;stroke-linejoin:miter;stroke-miterlimit:10;"/><line x1="387.39" y1="533.247" x2="387.39" y2="579.08" style="stroke:#3B4A6B;stroke-width:2.292;"/><polygon points="378.223,556.163,387.39,579.08,396.557,556.163,387.39,565.33" fill="#3B4A6B" style="stroke:#3B4A6B;stroke-width:2.292;stroke-linejoin:miter;stroke-miterlimit:10;"/><line x1="387.39" y1="686.359" x2="387.39" y2="732.192" style="stroke:#3B4A6B;stroke-width:2.292;"/><polygon points="378.223,709.275,387.39,732.192,396.557,709.275,387.39,718.442" fill="#3B4A6B" style="stroke:#3B4A6B;stroke-width:2.292;stroke-linejoin:miter;stroke-miterlimit:10;"/><line x1="387.39" y1="4001.635" x2="387.39" y2="4063.429" style="stroke:#3B4A6B;stroke-width:2.292;"/><polygon points="378.223,4040.513,387.39,4063.429,396.557,4040.513,387.39,4049.679" fill="#3B4A6B" style="stroke:#3B4A6B;stroke-width:2.292;stroke-linejoin:miter;stroke-miterlimit:10;"/><line x1="512.985" y1="3974.135" x2="1039.573" y2="3974.135" style="stroke:#3B4A6B;stroke-width:2.292;"/><polygon points="1030.406,4078.791,1039.573,4101.707,1048.74,4078.791,1039.573,4087.957" fill="#3B4A6B" style="stroke:#3B4A6B;stroke-width:2.292;stroke-linejoin:miter;stroke-miterlimit:10;"/><line x1="1039.573" y1="3974.135" x2="1039.573" y2="4219.782" style="stroke:#3B4A6B;stroke-width:2.292;"/><line x1="1039.573" y1="4219.782" x2="414.89" y2="4219.782" style="stroke:#3B4A6B;stroke-width:2.292;"/><polygon points="437.807,4210.615,414.89,4219.782,437.807,4228.949,428.64,4219.782" fill="#3B4A6B" style="stroke:#3B4A6B;stroke-width:2.292;stroke-linejoin:miter;stroke-miterlimit:10;"/><line x1="387.39" y1="4139.985" x2="387.39" y2="4192.282" style="stroke:#3B4A6B;stroke-width:2.292;"/><polygon points="378.223,4169.365,387.39,4192.282,396.557,4169.365,387.39,4178.532" fill="#3B4A6B" style="stroke:#3B4A6B;stroke-width:2.292;stroke-linejoin:miter;stroke-miterlimit:10;"/><line x1="387.39" y1="3900.802" x2="387.39" y2="3946.635" style="stroke:#3B4A6B;stroke-width:2.292;"/><polygon points="378.223,3923.718,387.39,3946.635,396.557,3923.718,387.39,3932.885" fill="#3B4A6B" style="stroke:#3B4A6B;stroke-width:2.292;stroke-linejoin:miter;stroke-miterlimit:10;"/><line x1="387.39" y1="4247.282" x2="387.39" y2="4293.115" style="stroke:#3B4A6B;stroke-width:2.292;"/><polygon points="378.223,4270.199,387.39,4293.115,396.557,4270.199,387.39,4279.365" fill="#3B4A6B" style="stroke:#3B4A6B;stroke-width:2.292;stroke-linejoin:miter;stroke-miterlimit:10;"/><line x1="387.39" y1="4348.115" x2="387.39" y2="4420.207" style="stroke:#3B4A6B;stroke-width:2.292;"/><polygon points="378.223,4397.29,387.39,4420.207,396.557,4397.29,387.39,4406.457" fill="#3B4A6B" style="stroke:#3B4A6B;stroke-width:2.292;stroke-linejoin:miter;stroke-miterlimit:10;"/><line x1="612.464" y1="4711.15" x2="649.158" y2="4711.15" style="stroke:#3B4A6B;stroke-width:2.292;"/><line x1="649.158" y1="4711.15" x2="649.158" y2="4784.483" style="stroke:#3B4A6B;stroke-width:2.292;"/><polygon points="639.992,4761.566,649.158,4784.483,658.325,4761.566,649.158,4770.733" fill="#3B4A6B" style="stroke:#3B4A6B;stroke-width:2.292;stroke-linejoin:miter;stroke-miterlimit:10;"/><line x1="649.158" y1="4861.039" x2="649.158" y2="5062.491" style="stroke:#3B4A6B;stroke-width:2.292;"/><line x1="649.158" y1="5062.491" x2="414.89" y2="5062.491" style="stroke:#3B4A6B;stroke-width:2.292;"/><polygon points="437.807,5053.324,414.89,5062.491,437.807,5071.658,428.64,5062.491" fill="#3B4A6B" style="stroke:#3B4A6B;stroke-width:2.292;stroke-linejoin:miter;stroke-miterlimit:10;"/><line x1="387.39" y1="4628.318" x2="387.39" y2="4683.65" style="stroke:#3B4A6B;stroke-width:2.292;"/><polygon points="378.223,4660.733,387.39,4683.65,396.557,4660.733,387.39,4669.9" fill="#3B4A6B" style="stroke:#3B4A6B;stroke-width:2.292;stroke-linejoin:miter;stroke-miterlimit:10;"/><line x1="191.746" y1="4600.818" x2="89.375" y2="4600.818" style="stroke:#3B4A6B;stroke-width:2.292;"/><polygon points="80.208,4866.768,89.375,4889.685,98.542,4866.768,89.375,4875.935" fill="#3B4A6B" style="stroke:#3B4A6B;stroke-width:2.292;stroke-linejoin:miter;stroke-miterlimit:10;"/><line x1="89.375" y1="4600.818" x2="89.375" y2="5163.324" style="stroke:#3B4A6B;stroke-width:2.292;"/><line x1="89.375" y1="5163.324" x2="359.89" y2="5163.324" style="stroke:#3B4A6B;stroke-width:2.292;"/><polygon points="336.973,5154.158,359.89,5163.324,336.973,5172.491,346.14,5163.324" fill="#3B4A6B" style="stroke:#3B4A6B;stroke-width:2.292;stroke-linejoin:miter;stroke-miterlimit:10;"/><line x1="387.39" y1="5089.991" x2="387.39" y2="5135.824" style="stroke:#3B4A6B;stroke-width:2.292;"/><polygon points="378.223,5112.908,387.39,5135.824,396.557,5112.908,387.39,5122.074" fill="#3B4A6B" style="stroke:#3B4A6B;stroke-width:2.292;stroke-linejoin:miter;stroke-miterlimit:10;"/><line x1="387.39" y1="4527.485" x2="387.39" y2="4573.318" style="stroke:#3B4A6B;stroke-width:2.292;"/><polygon points="378.223,4550.402,387.39,4573.318,396.557,4550.402,387.39,4559.568" fill="#3B4A6B" style="stroke:#3B4A6B;stroke-width:2.292;stroke-linejoin:miter;stroke-miterlimit:10;"/><line x1="387.39" y1="5190.824" x2="387.39" y2="5236.658" style="stroke:#3B4A6B;stroke-width:2.292;"/><polygon points="378.223,5213.741,387.39,5236.658,396.557,5213.741,387.39,5222.908" fill="#3B4A6B" style="stroke:#3B4A6B;stroke-width:2.292;stroke-linejoin:miter;stroke-miterlimit:10;"/><line x1="1502.228" y1="931.137" x2="1502.228" y2="976.971" style="stroke:#3B4A6B;stroke-width:2.292;"/><polygon points="1493.061,954.054,1502.228,976.971,1511.394,954.054,1502.228,963.221" fill="#3B4A6B" style="stroke:#3B4A6B;stroke-width:2.292;stroke-linejoin:miter;stroke-miterlimit:10;"/><line x1="1502.228" y1="1084.249" x2="1502.228" y2="1130.083" style="stroke:#3B4A6B;stroke-width:2.292;"/><polygon points="1493.061,1107.166,1502.228,1130.083,1511.394,1107.166,1502.228,1116.333" fill="#3B4A6B" style="stroke:#3B4A6B;stroke-width:2.292;stroke-linejoin:miter;stroke-miterlimit:10;"/><line x1="1384.338" y1="1931.808" x2="1334.491" y2="1931.808" style="stroke:#3B4A6B;stroke-width:2.292;"/><line x1="1334.491" y1="1931.808" x2="1334.491" y2="1982.225" style="stroke:#3B4A6B;stroke-width:2.292;"/><polygon points="1325.324,1959.308,1334.491,1982.225,1343.657,1959.308,1334.491,1968.475" fill="#3B4A6B" style="stroke:#3B4A6B;stroke-width:2.292;stroke-linejoin:miter;stroke-miterlimit:10;"/><line x1="1620.117" y1="1931.808" x2="1669.965" y2="1931.808" style="stroke:#3B4A6B;stroke-width:2.292;"/><line x1="1669.965" y1="1931.808" x2="1669.965" y2="1982.225" style="stroke:#3B4A6B;stroke-width:2.292;"/><polygon points="1660.798,1959.308,1669.965,1982.225,1679.131,1959.308,1669.965,1968.475" fill="#3B4A6B" style="stroke:#3B4A6B;stroke-width:2.292;stroke-linejoin:miter;stroke-miterlimit:10;"/><line x1="1334.491" y1="2058.781" x2="1334.491" y2="2130.753" style="stroke:#3B4A6B;stroke-width:2.292;"/><line x1="1334.491" y1="2130.753" x2="1474.728" y2="2130.753" style="stroke:#3B4A6B;stroke-width:2.292;"/><polygon points="1451.811,2121.587,1474.728,2130.753,1451.811,2139.92,1460.978,2130.753" fill="#3B4A6B" style="stroke:#3B4A6B;stroke-width:2.292;stroke-linejoin:miter;stroke-miterlimit:10;"/><line x1="1669.965" y1="2089.503" x2="1669.965" y2="2130.753" style="stroke:#3B4A6B;stroke-width:2.292;"/><line x1="1669.965" y1="2130.753" x2="1529.728" y2="2130.753" style="stroke:#3B4A6B;stroke-width:2.292;"/><polygon points="1552.644,2121.587,1529.728,2130.753,1552.644,2139.92,1543.478,2130.753" fill="#3B4A6B" style="stroke:#3B4A6B;stroke-width:2.292;stroke-linejoin:miter;stroke-miterlimit:10;"/><line x1="1502.228" y1="2158.253" x2="1502.228" y2="2204.087" style="stroke:#3B4A6B;stroke-width:2.292;"/><polygon points="1493.061,2181.17,1502.228,2204.087,1511.394,2181.17,1502.228,2190.337" fill="#3B4A6B" style="stroke:#3B4A6B;stroke-width:2.292;stroke-linejoin:miter;stroke-miterlimit:10;"/><line x1="1502.228" y1="2412.198" x2="1502.228" y2="2484.29" style="stroke:#3B4A6B;stroke-width:2.292;"/><polygon points="1493.061,2461.373,1502.228,2484.29,1511.394,2461.373,1502.228,2470.54" fill="#3B4A6B" style="stroke:#3B4A6B;stroke-width:2.292;stroke-linejoin:miter;stroke-miterlimit:10;"/><line x1="1502.228" y1="2560.846" x2="1502.228" y2="2583.762" style="stroke:#3B4A6B;stroke-width:2.292;"/><line x1="1502.228" y1="2583.762" x2="1739.169" y2="2583.762" style="stroke:#3B4A6B;stroke-width:2.292;"/><polygon points="1730.002,2503.903,1739.169,2480.987,1748.336,2503.903,1739.169,2494.737" fill="#3B4A6B" style="stroke:#3B4A6B;stroke-width:2.292;stroke-linejoin:miter;stroke-miterlimit:10;"/><line x1="1739.169" y1="2384.698" x2="1739.169" y2="2583.762" style="stroke:#3B4A6B;stroke-width:2.292;"/><line x1="1739.169" y1="2384.698" x2="1653.757" y2="2384.698" style="stroke:#3B4A6B;stroke-width:2.292;"/><polygon points="1676.674,2375.532,1653.757,2384.698,1676.674,2393.865,1667.507,2384.698" fill="#3B4A6B" style="stroke:#3B4A6B;stroke-width:2.292;stroke-linejoin:miter;stroke-miterlimit:10;"/><line x1="1350.699" y1="2384.698" x2="1265.286" y2="2384.698" style="stroke:#3B4A6B;stroke-width:2.292;"/><polygon points="1256.12,2471.82,1265.286,2494.737,1274.453,2471.82,1265.286,2480.987" fill="#3B4A6B" style="stroke:#3B4A6B;stroke-width:2.292;stroke-linejoin:miter;stroke-miterlimit:10;"/><line x1="1265.286" y1="2384.698" x2="1265.286" y2="2611.262" style="stroke:#3B4A6B;stroke-width:2.292;"/><line x1="1265.286" y1="2611.262" x2="1502.228" y2="2611.262" style="stroke:#3B4A6B;stroke-width:2.292;"/><line x1="1502.228" y1="2611.262" x2="1502.228" y2="2657.096" style="stroke:#3B4A6B;stroke-width:2.292;"/><polygon points="1493.061,2634.179,1502.228,2657.096,1511.394,2634.179,1502.228,2643.346" fill="#3B4A6B" style="stroke:#3B4A6B;stroke-width:2.292;stroke-linejoin:miter;stroke-miterlimit:10;"/><line x1="1502.228" y1="2311.365" x2="1502.228" y2="2357.198" style="stroke:#3B4A6B;stroke-width:2.292;"/><polygon points="1493.061,2334.282,1502.228,2357.198,1511.394,2334.282,1502.228,2343.448" fill="#3B4A6B" style="stroke:#3B4A6B;stroke-width:2.292;stroke-linejoin:miter;stroke-miterlimit:10;"/><line x1="1502.228" y1="2712.096" x2="1502.228" y2="2757.929" style="stroke:#3B4A6B;stroke-width:2.292;"/><polygon points="1493.061,2735.012,1502.228,2757.929,1511.394,2735.012,1502.228,2744.179" fill="#3B4A6B" style="stroke:#3B4A6B;stroke-width:2.292;stroke-linejoin:miter;stroke-miterlimit:10;"/><line x1="1345.123" y1="3571.542" x2="1126.656" y2="3571.542" style="stroke:#3B4A6B;stroke-width:2.292;"/><polygon points="1117.49,3133.798,1126.656,3110.882,1135.823,3133.798,1126.656,3124.632" fill="#3B4A6B" style="stroke:#3B4A6B;stroke-width:2.292;stroke-linejoin:miter;stroke-miterlimit:10;"/><line x1="1126.656" y1="2684.596" x2="1126.656" y2="3571.542" style="stroke:#3B4A6B;stroke-width:2.292;"/><line x1="1126.656" y1="2684.596" x2="1474.728" y2="2684.596" style="stroke:#3B4A6B;stroke-width:2.292;"/><polygon points="1451.811,2675.429,1474.728,2684.596,1451.811,2693.762,1460.978,2684.596" fill="#3B4A6B" style="stroke:#3B4A6B;stroke-width:2.292;stroke-linejoin:miter;stroke-miterlimit:10;"/><line x1="1502.228" y1="3599.042" x2="1502.228" y2="3671.134" style="stroke:#3B4A6B;stroke-width:2.292;"/><polygon points="1493.061,3648.217,1502.228,3671.134,1511.394,3648.217,1502.228,3657.384" fill="#3B4A6B" style="stroke:#3B4A6B;stroke-width:2.292;stroke-linejoin:miter;stroke-miterlimit:10;"/><line x1="1502.228" y1="1206.639" x2="1502.228" y2="1252.472" style="stroke:#3B4A6B;stroke-width:2.292;"/><polygon points="1493.061,1229.555,1502.228,1252.472,1511.394,1229.555,1502.228,1238.722" fill="#3B4A6B" style="stroke:#3B4A6B;stroke-width:2.292;stroke-linejoin:miter;stroke-miterlimit:10;"/><line x1="2972.915" y1="1460.584" x2="2972.915" y2="1506.417" style="stroke:#3B4A6B;stroke-width:2.292;"/><polygon points="2963.748,1483.501,2972.915,1506.417,2982.082,1483.501,2972.915,1492.667" fill="#3B4A6B" style="stroke:#3B4A6B;stroke-width:2.292;stroke-linejoin:miter;stroke-miterlimit:10;"/><line x1="2080.35" y1="3247.486" x2="2080.35" y2="3293.32" style="stroke:#3B4A6B;stroke-width:2.292;"/><polygon points="2071.183,3270.403,2080.35,3293.32,2089.517,3270.403,2080.35,3279.57" fill="#3B4A6B" style="stroke:#3B4A6B;stroke-width:2.292;stroke-linejoin:miter;stroke-miterlimit:10;"/><line x1="2508.299" y1="3247.486" x2="2508.299" y2="3293.32" style="stroke:#3B4A6B;stroke-width:2.292;"/><polygon points="2499.132,3270.403,2508.299,3293.32,2517.465,3270.403,2508.299,3279.57" fill="#3B4A6B" style="stroke:#3B4A6B;stroke-width:2.292;stroke-linejoin:miter;stroke-miterlimit:10;"/><line x1="2986.668" y1="3247.486" x2="2986.668" y2="3293.32" style="stroke:#3B4A6B;stroke-width:2.292;"/><polygon points="2977.502,3270.403,2986.668,3293.32,2995.835,3270.403,2986.668,3279.57" fill="#3B4A6B" style="stroke:#3B4A6B;stroke-width:2.292;stroke-linejoin:miter;stroke-miterlimit:10;"/><line x1="2080.35" y1="3369.876" x2="2080.35" y2="3415.709" style="stroke:#3B4A6B;stroke-width:2.292;"/><polygon points="2071.183,3392.792,2080.35,3415.709,2089.517,3392.792,2080.35,3401.959" fill="#3B4A6B" style="stroke:#3B4A6B;stroke-width:2.292;stroke-linejoin:miter;stroke-miterlimit:10;"/><line x1="2508.299" y1="3369.876" x2="2508.299" y2="3415.709" style="stroke:#3B4A6B;stroke-width:2.292;"/><polygon points="2499.132,3392.792,2508.299,3415.709,2517.465,3392.792,2508.299,3401.959" fill="#3B4A6B" style="stroke:#3B4A6B;stroke-width:2.292;stroke-linejoin:miter;stroke-miterlimit:10;"/><line x1="2986.668" y1="3369.876" x2="2986.668" y2="3415.709" style="stroke:#3B4A6B;stroke-width:2.292;"/><polygon points="2977.502,3392.792,2986.668,3415.709,2995.835,3392.792,2986.668,3401.959" fill="#3B4A6B" style="stroke:#3B4A6B;stroke-width:2.292;stroke-linejoin:miter;stroke-miterlimit:10;"/><line x1="2517.47" y1="3187.903" x2="2517.47" y2="3233.736" style="stroke:#3B4A6B;stroke-width:2.292;"/><polygon points="2508.303,3210.82,2517.47,3233.736,2526.636,3210.82,2517.47,3219.986" fill="#3B4A6B" style="stroke:#3B4A6B;stroke-width:2.292;stroke-linejoin:miter;stroke-miterlimit:10;"/><line x1="2743.625" y1="3060.93" x2="2517.47" y2="3060.93" style="stroke:#3B4A6B;stroke-width:2.292;"/><line x1="2517.47" y1="3060.93" x2="2517.47" y2="3111.347" style="stroke:#3B4A6B;stroke-width:2.292;"/><polygon points="2508.303,3088.43,2517.47,3111.347,2526.636,3088.43,2517.47,3097.597" fill="#3B4A6B" style="stroke:#3B4A6B;stroke-width:2.292;stroke-linejoin:miter;stroke-miterlimit:10;"/><line x1="3202.205" y1="3060.93" x2="3418.407" y2="3060.93" style="stroke:#3B4A6B;stroke-width:2.292;"/><line x1="3418.407" y1="3060.93" x2="3418.407" y2="3111.347" style="stroke:#3B4A6B;stroke-width:2.292;"/><polygon points="3409.24,3088.43,3418.407,3111.347,3427.574,3088.43,3418.407,3097.597" fill="#3B4A6B" style="stroke:#3B4A6B;stroke-width:2.292;stroke-linejoin:miter;stroke-miterlimit:10;"/><line x1="2517.47" y1="3429.459" x2="2517.47" y2="3470.709" style="stroke:#3B4A6B;stroke-width:2.292;"/><line x1="2517.47" y1="3470.709" x2="2945.415" y2="3470.709" style="stroke:#3B4A6B;stroke-width:2.292;"/><polygon points="2922.498,3461.542,2945.415,3470.709,2922.498,3479.876,2931.665,3470.709" fill="#3B4A6B" style="stroke:#3B4A6B;stroke-width:2.292;stroke-linejoin:miter;stroke-miterlimit:10;"/><line x1="3418.407" y1="3187.903" x2="3418.407" y2="3470.709" style="stroke:#3B4A6B;stroke-width:2.292;"/><line x1="3418.407" y1="3470.709" x2="3000.415" y2="3470.709" style="stroke:#3B4A6B;stroke-width:2.292;"/><polygon points="3023.332,3461.542,3000.415,3470.709,3023.332,3479.876,3014.165,3470.709" fill="#3B4A6B" style="stroke:#3B4A6B;stroke-width:2.292;stroke-linejoin:miter;stroke-miterlimit:10;"/><line x1="2972.915" y1="2987.597" x2="2972.915" y2="3033.43" style="stroke:#3B4A6B;stroke-width:2.292;"/><polygon points="2963.748,3010.514,2972.915,3033.43,2982.082,3010.514,2972.915,3019.68" fill="#3B4A6B" style="stroke:#3B4A6B;stroke-width:2.292;stroke-linejoin:miter;stroke-miterlimit:10;"/><line x1="2711.147" y1="4861.039" x2="2711.147" y2="4935.518" style="stroke:#3B4A6B;stroke-width:2.292;"/><polygon points="2701.98,4912.602,2711.147,4935.518,2720.314,4912.602,2711.147,4921.768" fill="#3B4A6B" style="stroke:#3B4A6B;stroke-width:2.292;stroke-linejoin:miter;stroke-miterlimit:10;"/><line x1="387.39" y1="808.748" x2="387.39" y2="820.206" style="stroke:#3B4A6B;stroke-width:2.292;"/><line x1="387.39" y1="820.206" x2="1502.228" y2="820.206" style="stroke:#3B4A6B;stroke-width:2.292;"/><line x1="1502.228" y1="820.206" x2="1502.228" y2="854.581" style="stroke:#3B4A6B;stroke-width:2.292;"/><polygon points="1493.061,831.665,1502.228,854.581,1511.394,831.665,1502.228,840.831" fill="#3B4A6B" style="stroke:#3B4A6B;stroke-width:2.292;stroke-linejoin:miter;stroke-miterlimit:10;"/><line x1="2972.915" y1="1613.696" x2="2972.915" y2="1625.154" style="stroke:#3B4A6B;stroke-width:2.292;"/><line x1="2972.915" y1="1625.154" x2="387.39" y2="1625.154" style="stroke:#3B4A6B;stroke-width:2.292;"/><line x1="387.39" y1="1625.154" x2="387.39" y2="1659.529" style="stroke:#3B4A6B;stroke-width:2.292;"/><polygon points="378.223,1636.613,387.39,1659.529,396.557,1636.613,387.39,1645.779" fill="#3B4A6B" style="stroke:#3B4A6B;stroke-width:2.292;stroke-linejoin:miter;stroke-miterlimit:10;"/><line x1="387.39" y1="1736.085" x2="387.39" y2="1747.544" style="stroke:#3B4A6B;stroke-width:2.292;"/><line x1="387.39" y1="1747.544" x2="2972.915" y2="1747.544" style="stroke:#3B4A6B;stroke-width:2.292;"/><line x1="2972.915" y1="1747.544" x2="2972.915" y2="1781.919" style="stroke:#3B4A6B;stroke-width:2.292;"/><polygon points="2963.748,1759.002,2972.915,1781.919,2982.082,1759.002,2972.915,1768.169" fill="#3B4A6B" style="stroke:#3B4A6B;stroke-width:2.292;stroke-linejoin:miter;stroke-miterlimit:10;"/><line x1="2972.915" y1="1858.475" x2="2972.915" y2="1869.933" style="stroke:#3B4A6B;stroke-width:2.292;"/><line x1="2972.915" y1="1869.933" x2="1502.228" y2="1869.933" style="stroke:#3B4A6B;stroke-width:2.292;"/><line x1="1502.228" y1="1869.933" x2="1502.228" y2="1904.308" style="stroke:#3B4A6B;stroke-width:2.292;"/><polygon points="1493.061,1881.391,1502.228,1904.308,1511.394,1881.391,1502.228,1890.558" fill="#3B4A6B" style="stroke:#3B4A6B;stroke-width:2.292;stroke-linejoin:miter;stroke-miterlimit:10;"/><line x1="1502.228" y1="2834.485" x2="1502.228" y2="2845.943" style="stroke:#3B4A6B;stroke-width:2.292;"/><line x1="1502.228" y1="2845.943" x2="2972.915" y2="2845.943" style="stroke:#3B4A6B;stroke-width:2.292;"/><line x1="2972.915" y1="2845.943" x2="2972.915" y2="2880.318" style="stroke:#3B4A6B;stroke-width:2.292;"/><polygon points="2963.748,2857.402,2972.915,2880.318,2982.082,2857.402,2972.915,2866.568" fill="#3B4A6B" style="stroke:#3B4A6B;stroke-width:2.292;stroke-linejoin:miter;stroke-miterlimit:10;"/><line x1="2972.915" y1="3498.209" x2="2972.915" y2="3509.667" style="stroke:#3B4A6B;stroke-width:2.292;"/><line x1="2972.915" y1="3509.667" x2="1502.228" y2="3509.667" style="stroke:#3B4A6B;stroke-width:2.292;"/><line x1="1502.228" y1="3509.667" x2="1502.228" y2="3544.042" style="stroke:#3B4A6B;stroke-width:2.292;"/><polygon points="1493.061,3521.126,1502.228,3544.042,1511.394,3521.126,1502.228,3530.292" fill="#3B4A6B" style="stroke:#3B4A6B;stroke-width:2.292;stroke-linejoin:miter;stroke-miterlimit:10;"/><line x1="1502.228" y1="3747.69" x2="1502.228" y2="3759.148" style="stroke:#3B4A6B;stroke-width:2.292;"/><line x1="1502.228" y1="3759.148" x2="387.39" y2="3759.148" style="stroke:#3B4A6B;stroke-width:2.292;"/><line x1="387.39" y1="3759.148" x2="387.39" y2="3793.523" style="stroke:#3B4A6B;stroke-width:2.292;"/><polygon points="378.223,3770.606,387.39,3793.523,396.557,3770.606,387.39,3779.773" fill="#3B4A6B" style="stroke:#3B4A6B;stroke-width:2.292;stroke-linejoin:miter;stroke-miterlimit:10;"/><line x1="1502.228" y1="1307.472" x2="1502.228" y2="1318.93" style="stroke:#3B4A6B;stroke-width:2.292;"/><line x1="1502.228" y1="1318.93" x2="2972.915" y2="1318.93" style="stroke:#3B4A6B;stroke-width:2.292;"/><line x1="2972.915" y1="1318.93" x2="2972.915" y2="1353.305" style="stroke:#3B4A6B;stroke-width:2.292;"/><polygon points="2963.748,1330.389,2972.915,1353.305,2982.082,1330.389,2972.915,1339.555" fill="#3B4A6B" style="stroke:#3B4A6B;stroke-width:2.292;stroke-linejoin:miter;stroke-miterlimit:10;"/><line x1="521.385" y1="4320.615" x2="1167.906" y2="4320.615" style="stroke:#3B4A6B;stroke-width:2.292;"/><polygon points="1158.74,2789.815,1167.906,2766.899,1177.073,2789.815,1167.906,2780.649" fill="#3B4A6B" style="stroke:#3B4A6B;stroke-width:2.292;stroke-linejoin:miter;stroke-miterlimit:10;"/><line x1="1167.906" y1="1279.972" x2="1167.906" y2="4320.615" style="stroke:#3B4A6B;stroke-width:2.292;"/><line x1="1167.906" y1="1279.972" x2="1474.728" y2="1279.972" style="stroke:#3B4A6B;stroke-width:2.292;"/><polygon points="1451.811,1270.805,1474.728,1279.972,1451.811,1289.139,1460.978,1279.972" fill="#3B4A6B" style="stroke:#3B4A6B;stroke-width:2.292;stroke-linejoin:miter;stroke-miterlimit:10;"/><line x1="162.316" y1="4711.15" x2="134.816" y2="4711.15" style="stroke:#3B4A6B;stroke-width:2.292;"/><line x1="134.816" y1="4711.15" x2="134.816" y2="4752.4" style="stroke:#3B4A6B;stroke-width:2.292;"/><line x1="134.816" y1="4752.4" x2="2711.147" y2="4752.4" style="stroke:#3B4A6B;stroke-width:2.292;"/><line x1="2711.147" y1="4752.4" x2="2711.147" y2="4784.483" style="stroke:#3B4A6B;stroke-width:2.292;"/><polygon points="2701.98,4761.566,2711.147,4784.483,2720.314,4761.566,2711.147,4770.733" fill="#3B4A6B" style="stroke:#3B4A6B;stroke-width:2.292;stroke-linejoin:miter;stroke-miterlimit:10;"/><line x1="2711.147" y1="5012.074" x2="2711.147" y2="5021.241" style="stroke:#3B4A6B;stroke-width:2.292;"/><line x1="2711.147" y1="5021.241" x2="318.64" y2="5021.241" style="stroke:#3B4A6B;stroke-width:2.292;"/><line x1="318.64" y1="5021.241" x2="318.64" y2="5062.491" style="stroke:#3B4A6B;stroke-width:2.292;"/><line x1="318.64" y1="5062.491" x2="359.89" y2="5062.491" style="stroke:#3B4A6B;stroke-width:2.292;"/><polygon points="336.973,5053.324,359.89,5062.491,336.973,5071.658,346.14,5062.491" fill="#3B4A6B" style="stroke:#3B4A6B;stroke-width:2.292;stroke-linejoin:miter;stroke-miterlimit:10;"/><text x="452.104" y="160.99" fill="#000" font-size="41.25" textLength="224.74" font-weight="700" font-family="Arial">Researcher</text><text x="1352.103" y="160.99" fill="#000" font-size="41.25" textLength="213.179" font-weight="700" font-family="Arial">Participant</text><text x="2505.24" y="160.99" fill="#000" font-size="41.25" textLength="401.14" font-weight="700" font-family="Arial">Platform / Scheduler</text><?plantuml-src bLR1RkCs4BtxAmReeGxWJRVfDjquXy9nOZJRtMsmRjfBBhGuiWUXI9MauXXD_xqp52NBoJP0RvOqCtpptfkXluK5eT7MHPp2xQUFe8f83nHte4cjlQh0bH0t28PAB7Q5GNcX8CH6xuv7uPvihIHCrmGd9s-7Rx1KZOaBP-DdLI7CF2ap-1usIhijsJMKoWGSV9bvxxPpPvo7RtwuU3SxlHXyx07-FGAuKCNzshl6wXo--6bnjfZB5-Sr-iCY09UaAcVroxJ5ukBgT10mpBvuFpjvDnlzCyI-fSeeYos8OV3xsTcxsOpV_axHe3I_Z3jcRUMCFYWXbFz73nsOhwE8KfXbMpSUuUpuVwis6ZrzmO3A5nlqJwCGbO-ZwToZOa0f0iRQgp8UdO-cbrWIjvdh4mROKjm0skXt47SrXicTPH5PoGdKtbLr352Z1wrs4wZ8KjLKi5RrdLLMG-0pTMFa72Q5wrzRBel0b4Ggg5OsXZixLePKW9J0_Z3ufWa8r8OMJgCWMmhk3gzlhEL8VZzwkjdNUXfDFpYoYOesCg6Nnq4rBlO5bKxdgQB0EgQ8mjd0VJAS1_I1dEKIpgDkQIcCOlhLWoAZLcIOUpxROyqiid9FDqR5qlaAleDbxfcv1fX-flKccXtKR1-1t2bbyJ4AQNoS71oz8iljgKYX5FQTdS3tRw4bD_N2EBZUKZ3rp3DhgJ1gOCyqDZzmqTGuQnoSJOa77f0wYFluVJscf4qAvw-sjKIEh9km4LzJIOKIo6tEK0y0Ac5y8u4Q3J6pg7y-4WOiZ7SOZZX2M1eKuKNXjgaKyfg0iNKvwAChb3au3qhoo0Og6Nuh-iuMqWwtbGfOJQN0_Qt6rXLjenDkik1XIw-IjvcnszlhoqJ0yfVPcvCVJw588yBCvjIDivYut6w8BJsUE-OkITNvmY3tHc60-LV4EazFzgKhIoCZzbU33MQGkM3cetTLntEF4iOLyiH3iWlx2g9B9bNh5jWhYd6jsSqrWmZeMUXzoNv2WYnj8M4qLg2RsWZ9o6Y2OE2kQ6tpF4WvqNNkgefYnz7MiQ6ZMYbMpVASXPT2PnJiU5Qk6i0upvyP-dt-oR4tpSeGMmSVE0XwbLqJL-vnc09gpVEpJ_oKQDho5vuUrhp047YNbKnpU2tljjRIirPXitBAwo2giGqCHAgmonG-Ug279fK6RTZogObNnNST6LxSRMhdnvTJqce-S9RmqtgShOeyEBgtrYHhSYIpq9FBEwro3vsgFLUzpPulW8Kpncr1QNw1F3N9-f9CQSVBKrJhxirvdkIhnzhvc7JcqxTV6ULXn7Y-_2FR9Lr_NaoRURhMN9hNw0ICozCiPoQ3vn3PkAwMJoo0VEJPWTMk-wTnt76QYZ_R5otLXxGkqvKG8Xa3-GR9f0hybat9FhmmftFZk6v_f_2gmBP7pcoBrIu4ukbFzz4mDos_lTAyh-ynUGVGgy2-U4wW97G582BVx7ozspom7bdD45-I_jhKNtcPH-hPpe8cFWVpCFtJo_sO1hA59ij57bMZAR98wxnX3dtqR4UdVITPIV_sEkathSQ2GhucMdtssUqp_pjnzRy0?></g></svg>